<svg width="250" height="250" viewBox="0 0 250 250" fill="none" xmlns="http://www.w3.org/2000/svg">
<rect width="250" height="250" fill="white"/>
<path d="M47.9237 169.5L125 36L202.076 169.5H47.9237Z" stroke="black"/>
<path d="M202.076 80.5L125 214L47.9237 80.5L202.076 80.5Z" stroke="black"/>
<path d="M169.5 202.076L36 125L169.5 47.9237V202.076Z" stroke="black"/>
<path d="M80.5 47.9237L214 125L80.5 202.076V47.9237Z" stroke="black"/>
<path d="M123.951 108.394C123.783 108.433 123.4 108.555 123.109 108.67C120.314 109.78 119.082 113.049 120.445 115.744C120.69 116.234 121.294 117.015 121.608 117.252C121.922 117.497 121.9 117.513 121.057 117.696C120.177 117.888 117.758 118.699 117.344 118.937C116.793 119.258 116.257 119.855 115.943 120.491C115.79 120.805 115.017 122.887 114.236 125.123L112.804 129.18L112.796 130.023C112.789 130.773 112.812 130.903 112.98 131.248C113.217 131.737 113.7 132.212 114.22 132.488C114.932 132.863 115.889 132.771 117.413 132.166C117.88 131.99 117.895 131.983 117.757 132.136C117.574 132.342 115.843 133.491 114.144 134.54C111.839 135.956 111.219 136.752 111.219 138.261C111.219 139.876 112.237 140.994 114.167 141.515C114.68 141.652 115.139 141.66 124.502 141.66C133.636 141.66 134.355 141.653 135.091 141.522C136.599 141.254 137.472 140.864 138.115 140.167C138.605 139.639 138.781 139.172 138.781 138.444C138.781 137.28 138.344 136.392 137.388 135.619C137.166 135.436 136.208 134.808 135.259 134.226C133.69 133.261 131.99 132.082 132.067 132.006C132.082 131.99 132.312 132.059 132.587 132.167C133.567 132.557 134.134 132.695 134.761 132.695C135.29 132.703 135.427 132.672 135.78 132.488C136.3 132.212 136.783 131.738 137.02 131.248C137.188 130.903 137.211 130.773 137.204 130.023L137.196 129.181L135.764 125.123C134.976 122.887 134.218 120.82 134.072 120.529C133.552 119.442 132.947 118.967 131.462 118.47C130.574 118.171 129.371 117.811 128.453 117.582L128.116 117.49L128.468 117.176C130.122 115.668 130.581 113.226 129.593 111.189C128.965 109.896 127.993 109.053 126.531 108.532C126.056 108.356 124.502 108.28 123.951 108.394ZM125.704 109.933C126.769 110.155 127.695 110.883 128.193 111.901C128.484 112.475 128.484 112.49 128.484 113.401C128.484 114.312 128.476 114.335 128.2 114.925C126.907 117.635 123.094 117.635 121.8 114.925C121.524 114.335 121.517 114.312 121.517 113.401C121.517 112.49 121.517 112.475 121.808 111.901C122.542 110.4 124.127 109.604 125.704 109.933ZM126.21 118.814C127.634 118.967 128.568 119.182 130.658 119.855C131.906 120.254 132.258 120.476 132.595 121.073C132.878 121.578 135.635 129.448 135.696 129.915C135.749 130.344 135.573 130.758 135.244 130.995C134.846 131.271 134.409 131.171 131.776 130.191C129.394 129.311 127.519 128.644 126.302 128.246C125.398 127.955 124.602 127.955 123.698 128.246C122.481 128.644 120.605 129.311 118.224 130.191C115.591 131.171 115.154 131.271 114.756 130.995C114.42 130.75 114.251 130.344 114.312 129.9C114.374 129.441 117.115 121.616 117.398 121.096C117.781 120.384 118.049 120.238 120.047 119.618C122.443 118.876 124.41 118.615 126.21 118.814ZM127.105 130.184C128.032 130.497 129.05 130.85 129.364 130.965C129.915 131.171 129.938 131.187 130.007 131.478C130.137 132.098 130.39 132.542 130.941 133.086C131.63 133.775 132.281 134.234 134.471 135.589C135.451 136.186 136.392 136.814 136.561 136.982C137.013 137.403 137.196 137.817 137.204 138.383C137.211 138.805 137.189 138.881 136.982 139.095C136.4 139.708 135.374 139.976 133.154 140.098C132.212 140.152 129.586 140.175 126.302 140.152C121.004 140.122 120.981 140.122 120.659 139.953C120.269 139.754 120.047 139.479 119.939 139.073C119.771 138.429 119.978 138.016 120.644 137.679C121.471 137.258 122.267 137.074 126.263 136.416C129.464 135.888 129.625 135.85 129.824 135.589C130.115 135.23 129.992 134.693 129.571 134.464L129.303 134.318L126.822 134.724C122.374 135.444 121.088 135.727 120.108 136.194C118.891 136.783 118.339 137.541 118.339 138.644C118.339 139.157 118.424 139.593 118.607 140.037C118.661 140.16 118.569 140.167 117.298 140.167C115.039 140.167 114.159 140.014 113.432 139.509C112.965 139.188 112.789 138.843 112.796 138.254C112.796 137.955 112.85 137.664 112.919 137.526C113.133 137.113 113.753 136.623 115.009 135.85C118.783 133.522 119.732 132.718 119.954 131.662C120 131.432 120.061 131.226 120.092 131.195C120.169 131.111 123.767 129.855 124.418 129.687C124.716 129.602 125.069 129.556 125.191 129.579C125.322 129.602 126.179 129.87 127.105 130.184Z" fill="black"/>
<path d="M124.579 120.192C123.867 120.399 123.423 121.18 122.933 123.094C122.757 123.791 122.581 124.426 122.55 124.51C122.504 124.625 121.999 124.855 120.552 125.422C119.48 125.835 118.531 126.233 118.432 126.294C117.811 126.7 118.049 127.688 118.768 127.688C119.067 127.688 123.27 126.095 123.63 125.843C123.891 125.659 123.921 125.567 124.381 123.775C124.763 122.267 124.901 121.869 125.008 121.869C125.108 121.869 125.292 122.451 125.69 124.013C125.897 124.832 126.134 125.59 126.21 125.697C126.317 125.843 126.9 126.103 128.568 126.761C129.785 127.244 130.903 127.649 131.049 127.665C131.194 127.687 131.409 127.665 131.516 127.626C131.753 127.534 131.998 127.06 131.937 126.807C131.83 126.386 131.585 126.248 129.518 125.444L127.489 124.648L127.404 124.35C127.351 124.189 127.182 123.553 127.029 122.941C126.562 121.134 126.118 120.384 125.384 120.185C125.069 120.093 124.893 120.101 124.579 120.192Z" fill="black"/>
</svg>
