<svg width="250" height="250" viewBox="0 0 250 250" fill="none" xmlns="http://www.w3.org/2000/svg">
<rect width="250" height="250" fill="white"/>
<path d="M20.5156 153V98.4545H35.3239V120.507H36.0696L52.4759 98.4545H69.7344L51.304 122.744L70.1605 153H52.4759L40.2244 132.545L35.3239 138.938V153H20.5156ZM74.1289 153V98.4545H97.6729C101.721 98.4545 105.263 99.1914 108.3 100.665C111.336 102.139 113.697 104.261 115.384 107.031C117.071 109.8 117.914 113.121 117.914 116.991C117.914 120.898 117.044 124.191 115.304 126.873C113.582 129.554 111.158 131.578 108.033 132.945C104.926 134.312 101.295 134.996 97.1403 134.996H83.0778V123.49H94.1573C95.8974 123.49 97.38 123.277 98.6051 122.851C99.848 122.407 100.798 121.706 101.455 120.747C102.13 119.788 102.467 118.536 102.467 116.991C102.467 115.429 102.13 114.159 101.455 113.183C100.798 112.189 99.848 111.461 98.6051 110.999C97.38 110.52 95.8974 110.28 94.1573 110.28H88.9371V153H74.1289ZM106.089 127.964L119.725 153H103.639L90.3221 127.964H106.089ZM171.421 98.4545V153H159.063L139.354 124.342H139.035V153H124.227V98.4545H136.798L156.187 127.006H156.613V98.4545H171.421ZM176.189 98.4545H192.701L203.355 120.614H203.781L214.434 98.4545H230.947L210.919 135.848V153H196.217V135.848L176.189 98.4545Z" fill="black"/>
</svg>
